<?xml version="1.0" standalone="no"?>
<!DOCTYPE svg PUBLIC "-//W3C//DTD SVG 20010904//EN"
 "http://www.w3.org/TR/2001/REC-SVG-20010904/DTD/svg10.dtd">
<svg version="1.0" xmlns="http://www.w3.org/2000/svg"
 width="1536.000000pt" height="1024.000000pt" viewBox="0 0 1536.000000 1024.000000"
 preserveAspectRatio="xMidYMid meet">

<g transform="translate(0.000000,1024.000000) scale(0.100000,-0.100000)"
fill="#000000" stroke="none">
<path d="M0 5120 l0 -5120 7680 0 7680 0 0 5120 0 5120 -7680 0 -7680 0 0
-5120z m11360 -1 c5 -689 5 -685 51 -709 41 -22 16 -41 -106 -81 -74 -25 -129
-38 -144 -34 -23 6 -23 8 -17 72 l7 67 -55 -53 c-89 -84 -170 -108 -268 -81
-92 26 -169 126 -205 264 -24 96 -24 293 2 391 71 277 233 399 453 341 l52
-14 0 116 c-1 148 -10 189 -51 223 -18 14 -29 31 -26 36 4 6 39 22 79 36 40
14 102 39 138 56 36 17 70 29 75 27 6 -2 12 -234 15 -657z m-4682 625 c210
-43 349 -187 413 -429 15 -57 22 -122 26 -230 14 -442 -122 -689 -416 -750
-44 -10 -155 -15 -336 -17 l-270 -3 0 22 c0 14 13 30 35 45 19 13 40 35 47 48
10 19 13 162 13 610 0 651 4 612 -69 645 -41 18 -47 28 -35 59 9 23 479 23
592 0z m2053 -12 c82 -27 173 -86 223 -143 59 -69 114 -190 137 -304 28 -135
23 -407 -10 -530 -61 -230 -189 -372 -377 -419 -43 -11 -132 -16 -329 -18
l-270 -3 -3 22 c-3 17 5 26 35 40 l38 18 0 622 c0 605 -1 621 -20 643 -11 12
-34 28 -52 35 -32 13 -44 41 -25 59 4 4 138 6 297 4 264 -4 296 -6 356 -26z
m767 -6 c35 -33 37 -37 37 -100 0 -58 -3 -68 -30 -96 -83 -87 -229 -43 -242
72 -11 95 47 158 145 158 46 0 57 -4 90 -34z m483 -458 c4 -24 8 -60 9 -81 l0
-39 61 62 c71 73 124 99 197 100 98 0 166 -51 204 -156 20 -55 21 -75 20 -304
-1 -135 1 -287 4 -338 5 -85 9 -97 36 -127 16 -19 28 -42 26 -52 -3 -16 -20
-18 -174 -21 -171 -2 -172 -2 -177 20 -5 16 1 31 21 51 l27 28 3 320 3 320
-30 29 c-47 48 -93 41 -174 -25 l-37 -30 0 -288 c0 -313 5 -346 54 -369 27
-12 31 -24 18 -46 -7 -9 -50 -12 -183 -10 l-174 3 -3 23 c-2 15 4 29 17 38 35
25 41 77 41 374 -1 319 -6 365 -44 395 -47 37 -35 50 102 119 70 35 131 60
136 56 4 -5 12 -28 17 -52z m-2522 38 c6 -7 14 -43 18 -80 3 -36 7 -66 9 -66
1 0 28 25 59 55 73 71 122 96 190 96 92 0 169 -56 207 -150 21 -53 22 -76 28
-401 3 -190 9 -352 14 -360 6 -8 18 -21 28 -28 11 -8 18 -23 16 -35 -3 -21 -8
-22 -175 -25 -167 -2 -172 -2 -178 19 -5 15 1 29 22 51 l28 29 3 320 3 319
-30 30 c-42 42 -93 41 -157 -3 l-49 -34 0 -322 c0 -355 -4 -328 59 -366 11 -6
15 -16 11 -27 -6 -16 -25 -18 -195 -18 -186 0 -188 0 -194 23 -4 15 0 26 12
34 38 26 51 47 61 95 13 60 14 567 1 623 -5 24 -20 49 -37 63 -23 18 -32 46
-18 60 5 5 240 112 246 112 4 0 12 -6 18 -14z m2057 -3 c4 -10 10 -211 14
-448 5 -445 6 -450 49 -489 16 -14 18 -23 10 -37 -9 -18 -24 -19 -188 -19
-154 0 -180 2 -185 16 -10 25 -7 30 20 42 51 24 56 57 56 391 0 169 -3 321 -6
338 -4 17 -19 39 -32 48 -50 33 -30 53 111 116 72 32 133 58 136 59 4 0 10 -8
15 -17z m3048 1 c3 -9 6 -48 6 -87 l0 -72 50 57 c81 92 152 126 222 107 22 -5
42 -17 45 -26 5 -12 -28 -225 -43 -285 -4 -13 -65 -45 -68 -36 -12 34 -54 102
-68 109 -54 29 -107 -17 -127 -112 -14 -64 -14 -482 -1 -531 6 -20 22 -46 36
-57 19 -15 24 -26 19 -41 -6 -20 -12 -20 -178 -18 -156 3 -172 5 -175 21 -2
10 8 29 21 41 14 13 30 41 36 62 13 48 14 592 2 648 -6 23 -23 51 -41 68 -17
15 -30 33 -28 39 3 10 252 127 274 128 7 1 15 -6 18 -15z m-575 -9 c84 -29
128 -81 165 -194 24 -71 59 -251 50 -260 -2 -2 -102 -27 -224 -56 -121 -28
-223 -55 -226 -58 -12 -12 8 -128 29 -169 29 -55 65 -80 126 -86 64 -6 129 18
181 64 31 28 43 33 69 28 40 -8 41 -32 0 -95 -41 -64 -100 -116 -168 -148 -77
-36 -201 -37 -279 -2 -76 34 -142 111 -172 197 -32 96 -40 305 -16 424 38 184
130 308 265 356 49 18 149 17 200 -1z"/>
<path d="M10970 5158 c-83 -42 -117 -169 -108 -403 6 -139 23 -191 82 -242 44
-39 87 -43 146 -13 l40 20 0 315 0 314 -30 16 c-40 21 -78 19 -130 -7z"/>
<path d="M6480 5581 c-13 -9 -15 -82 -17 -545 l-2 -536 41 -11 c23 -6 62 -8
87 -4 159 23 227 165 238 495 12 336 -38 516 -159 578 -52 27 -163 40 -188 23z"/>
<path d="M8468 5584 c-17 -5 -18 -40 -18 -544 l0 -538 36 -12 c87 -29 200 15
252 97 62 100 82 208 82 458 0 244 -14 328 -72 425 -26 43 -44 60 -88 82 -54
28 -152 44 -192 32z"/>
<path d="M11821 5139 c-37 -36 -58 -104 -67 -212 -7 -75 -6 -79 12 -74 10 3
61 16 112 28 l94 21 -7 92 c-4 50 -12 102 -17 116 -25 67 -77 79 -127 29z"/>
</g>
</svg>
